<svg width="280" height="158" viewBox="0 0 280 158" fill="none" xmlns="http://www.w3.org/2000/svg">
<rect x="0.00952911" y="0.078125" width="279.079" height="157.545" fill="black"/>
<rect x="5.26033" y="6.82812" width="268.576" height="144.041" fill="black" stroke="white" stroke-width="1.5"/>
<rect x="10.5117" y="51.0918" width="121.534" height="39.011" fill="black"/>
<path d="M25.5525 76.0938H24.0165V64.9257H26.0165L30.7845 73.9497V64.9257H32.3045V76.0938H30.2885L25.5525 67.1177V76.0938ZM37.4 76.0938H35.704V64.9257H39.512C40.2373 64.9257 40.8826 65.0537 41.448 65.3097C42.0133 65.5551 42.456 65.9444 42.776 66.4777C43.096 67.0004 43.256 67.6777 43.256 68.5097C43.256 69.3417 43.096 70.0244 42.776 70.5577C42.456 71.0804 42.0133 71.4697 41.448 71.7257C40.8826 71.9711 40.2373 72.0938 39.512 72.0938H37.4V76.0938ZM37.4 66.3177V70.7017H39.432C40.072 70.7017 40.5786 70.5204 40.952 70.1577C41.336 69.7951 41.528 69.2457 41.528 68.5097C41.528 67.7844 41.336 67.2404 40.952 66.8777C40.5786 66.5044 40.072 66.3177 39.432 66.3177H37.4ZM47.4781 76.0938H45.7821V64.9257H47.4781V69.6777H52.4861V64.9257H54.1821V76.0938H52.4861V71.1497H47.4781V76.0938ZM65.4387 76.0938L63.6147 73.1177L61.8707 76.0938H60.1107L62.7347 71.8057L60.2707 67.7897H62.0627L63.6947 70.5737L65.3427 67.7897H67.0547L64.6067 71.8537L67.2307 76.0938H65.4387ZM72.2946 76.2698C71.3666 76.2698 70.6039 76.1204 70.0066 75.8217C69.4199 75.5231 68.9826 75.0537 68.6946 74.4137C68.4172 73.7737 68.2786 72.9417 68.2786 71.9177C68.2786 70.4884 68.5826 69.4164 69.1906 68.7017C69.7986 67.9764 70.6946 67.6137 71.8786 67.6137C72.9666 67.6137 73.7826 67.9124 74.3266 68.5097C74.8706 69.0964 75.1426 69.9977 75.1426 71.2137C75.1426 71.3844 75.1319 71.5764 75.1106 71.7897C75.0999 71.9924 75.0786 72.1844 75.0466 72.3657H69.9746C70.0066 72.8991 70.0812 73.3364 70.1986 73.6777C70.3586 74.1151 70.6146 74.4297 70.9666 74.6217C71.3292 74.8031 71.8039 74.8937 72.3906 74.8937C72.8172 74.8937 73.2066 74.8671 73.5586 74.8137C73.9212 74.7497 74.2999 74.6644 74.6946 74.5577V75.9817C74.3532 76.0671 73.9799 76.1364 73.5746 76.1898C73.1799 76.2431 72.7532 76.2698 72.2946 76.2698ZM69.9906 71.1977H73.5266V71.1177C73.5266 70.3284 73.3826 69.7684 73.0946 69.4377C72.8172 69.0964 72.4066 68.9257 71.8626 68.9257C71.1799 68.9257 70.6946 69.1604 70.4066 69.6297C70.1826 69.9711 70.0439 70.4937 69.9906 71.1977ZM72.7266 64.6377L74.1346 66.8137H72.7106L71.7826 65.5657L70.8386 66.8137H69.4466L70.8706 64.6377H72.7266ZM72.3106 62.3497H74.1186L72.6306 64.1097H71.1586L72.3106 62.3497ZM77.352 67.7897H78.952V68.6537C79.3146 68.3657 79.6773 68.1364 80.04 67.9657C80.5306 67.7311 81.0213 67.6137 81.512 67.6137C82.0773 67.6137 82.5733 67.7471 83 68.0138C83.4373 68.2697 83.7733 68.7071 84.008 69.3257C84.2426 69.9444 84.36 70.8031 84.36 71.9017C84.36 72.9897 84.2213 73.8537 83.944 74.4937C83.6773 75.1337 83.2826 75.5924 82.76 75.8697C82.248 76.1364 81.6186 76.2698 80.872 76.2698C80.2746 76.2698 79.704 76.1951 79.16 76.0457C79.1066 76.0351 79.0533 76.0191 79 75.9977V79.3898H77.352V67.7897ZM80.968 69.0697C80.6373 69.0697 80.2693 69.1551 79.864 69.3257C79.5973 69.4324 79.3093 69.5871 79 69.7897V74.5577C79.224 74.6431 79.4373 74.7124 79.64 74.7657C80.0026 74.8617 80.392 74.9097 80.808 74.9097C81.256 74.9097 81.6186 74.8191 81.896 74.6377C82.1733 74.4564 82.376 74.1471 82.504 73.7097C82.632 73.2617 82.696 72.6591 82.696 71.9017C82.696 70.8457 82.5466 70.1097 82.248 69.6937C81.9493 69.2777 81.5226 69.0697 80.968 69.0697ZM90.3977 74.2697V64.6057H92.0617V74.1417C92.0617 74.3977 92.115 74.5737 92.2217 74.6697C92.3284 74.7657 92.4884 74.8137 92.7017 74.8137C92.8084 74.8137 92.9204 74.8031 93.0377 74.7817C93.1657 74.7604 93.2777 74.7337 93.3737 74.7017V76.1098C93.1817 76.1418 92.995 76.1684 92.8137 76.1898C92.643 76.2218 92.467 76.2378 92.2857 76.2378C91.6564 76.2378 91.1817 76.0991 90.8617 75.8217C90.5524 75.5337 90.3977 75.0164 90.3977 74.2697ZM98.2223 67.6137C99.4063 67.6137 100.297 67.9711 100.894 68.6857C101.492 69.4004 101.79 70.4937 101.79 71.9657C101.79 73.4271 101.492 74.5097 100.894 75.2137C100.297 75.9177 99.4063 76.2698 98.2223 76.2698C97.0383 76.2698 96.1423 75.9177 95.5343 75.2137C94.937 74.4991 94.6383 73.4004 94.6383 71.9177C94.6383 70.4564 94.937 69.3737 95.5343 68.6697C96.1423 67.9657 97.0383 67.6137 98.2223 67.6137ZM98.2223 74.8777C98.6597 74.8777 99.017 74.7817 99.2943 74.5897C99.5717 74.3977 99.7743 74.0884 99.9023 73.6617C100.041 73.2244 100.11 72.6591 100.11 71.9657C100.11 71.2617 100.041 70.6911 99.9023 70.2537C99.7743 69.8164 99.5717 69.4964 99.2943 69.2937C99.017 69.0911 98.6597 68.9897 98.2223 68.9897C97.785 68.9897 97.4277 69.0911 97.1503 69.2937C96.873 69.4964 96.6703 69.8111 96.5423 70.2377C96.4143 70.6644 96.3503 71.2244 96.3503 71.9177C96.3503 72.6217 96.4143 73.1924 96.5423 73.6297C96.6703 74.0671 96.873 74.3871 97.1503 74.5897C97.4277 74.7817 97.785 74.8777 98.2223 74.8777ZM110.055 76.0938H108.503V75.0857C108.215 75.3737 107.927 75.6031 107.639 75.7737C107.106 76.1044 106.525 76.2698 105.895 76.2698C105.437 76.2698 105.026 76.1844 104.663 76.0137C104.311 75.8431 104.034 75.5817 103.831 75.2297C103.629 74.8671 103.527 74.4137 103.527 73.8697C103.527 73.0164 103.751 72.3924 104.199 71.9977C104.658 71.5924 105.319 71.3898 106.183 71.3898H108.423V70.4937C108.423 70.0031 108.301 69.6457 108.055 69.4217C107.821 69.1871 107.421 69.0697 106.855 69.0697C106.386 69.0697 105.917 69.1124 105.447 69.1977C104.978 69.2724 104.525 69.3737 104.087 69.5017V68.0457C104.567 67.9177 105.069 67.8164 105.591 67.7417C106.114 67.6564 106.594 67.6137 107.031 67.6137C108.055 67.6137 108.813 67.8164 109.303 68.2217C109.805 68.6271 110.055 69.2991 110.055 70.2377V76.0938ZM108.423 72.5417H106.551C106.061 72.5417 105.693 72.6324 105.447 72.8137C105.202 72.9844 105.079 73.2991 105.079 73.7577C105.079 74.2164 105.191 74.5364 105.415 74.7177C105.65 74.8884 105.943 74.9737 106.295 74.9737C106.701 74.9737 107.106 74.8671 107.511 74.6537C107.81 74.4937 108.114 74.2857 108.423 74.0297V72.5417ZM106.951 79.2778C106.599 79.2778 106.343 79.2031 106.183 79.0538C106.023 78.9044 105.943 78.6591 105.943 78.3178C105.943 77.9658 106.023 77.7151 106.183 77.5658C106.343 77.4164 106.599 77.3418 106.951 77.3418C107.314 77.3418 107.57 77.4164 107.719 77.5658C107.879 77.7151 107.959 77.9658 107.959 78.3178C107.959 78.6591 107.879 78.9044 107.719 79.0538C107.57 79.2031 107.314 79.2778 106.951 79.2778ZM114.328 67.7897V76.0938H112.664V67.7897H114.328ZM113.496 66.4937C113.155 66.4937 112.899 66.4191 112.728 66.2697C112.568 66.1204 112.488 65.8751 112.488 65.5337C112.488 65.1817 112.568 64.9311 112.728 64.7817C112.899 64.6324 113.155 64.5577 113.496 64.5577C113.87 64.5577 114.131 64.6324 114.28 64.7817C114.43 64.9311 114.504 65.1817 114.504 65.5337C114.504 65.8751 114.43 66.1204 114.28 66.2697C114.131 66.4191 113.87 66.4937 113.496 66.4937Z" fill="white"/>
<rect x="10.5117" y="12.082" width="121.534" height="39.011" fill="white"/>
<path d="M58.8025 38.6111V42.5791H43.3145V38.6111H49.1065V25.3631L43.6025 27.3471V23.1871L49.9065 20.2431H53.9065V38.6111H58.8025ZM69.734 19.9231C72.294 19.9231 74.2353 20.4458 75.558 21.4911C76.8806 22.5151 77.542 24.0191 77.542 26.0031C77.542 27.9871 76.8806 29.4698 75.558 30.4511C75.3233 30.6218 75.078 30.7818 74.822 30.9311C75.2273 31.1018 75.6006 31.3044 75.942 31.5391C77.3713 32.5418 78.086 34.0351 78.086 36.0191C78.086 38.3444 77.382 40.0724 75.974 41.2031C74.566 42.3338 72.4966 42.8991 69.766 42.8991C67.014 42.8991 64.934 42.3338 63.526 41.2031C62.118 40.0724 61.4246 38.3444 61.446 36.0191C61.446 34.0351 62.1606 32.5418 63.59 31.5391C63.9313 31.3044 64.294 31.1018 64.678 30.9311C64.422 30.7818 64.1873 30.6218 63.974 30.4511C62.6513 29.4698 61.99 28.0084 61.99 26.0671C61.99 24.0618 62.6406 22.5364 63.942 21.4911C65.2433 20.4458 67.174 19.9231 69.734 19.9231ZM69.766 32.7551C68.5926 32.7551 67.718 33.0111 67.142 33.5231C66.566 34.0351 66.278 34.8244 66.278 35.8911C66.278 37.0004 66.5553 37.8218 67.11 38.3551C67.686 38.8884 68.5713 39.1551 69.766 39.1551C70.9606 39.1551 71.8353 38.8884 72.39 38.3551C72.9446 37.8218 73.222 37.0004 73.222 35.8911C73.222 34.8244 72.934 34.0351 72.358 33.5231C71.8033 33.0111 70.9393 32.7551 69.766 32.7551ZM69.766 23.6991C67.6753 23.6991 66.63 24.5311 66.63 26.1951C66.63 27.2404 66.886 28.0084 67.398 28.4991C67.9313 28.9684 68.7206 29.2031 69.766 29.2031C70.8113 29.2031 71.59 28.9684 72.102 28.4991C72.6353 28.0084 72.902 27.2404 72.902 26.1951C72.902 24.5311 71.8566 23.6991 69.766 23.6991ZM86.9695 26.4191H90.8735V31.1871H96.0255V34.9951H90.8735V39.7631H86.9695V34.9951H81.8175V31.1871H86.9695V26.4191Z" fill="black"/>
<rect x="10.5117" y="93.1035" width="258.073" height="52.5148" fill="#2A2A2A"/>
<path d="M34.1487 113.258C33.2247 113.258 32.4407 113.09 31.7967 112.754C31.1527 112.409 30.6627 111.863 30.3267 111.116C30.0001 110.37 29.8367 109.39 29.8367 108.176C29.8367 106.944 30.0047 105.964 30.3407 105.236C30.6767 104.499 31.1527 103.972 31.7687 103.654C32.3941 103.337 33.1407 103.178 34.0087 103.178C34.3914 103.178 34.7554 103.206 35.1007 103.262C35.4461 103.309 35.7494 103.379 36.0107 103.472V104.788C35.6934 104.686 35.3714 104.606 35.0447 104.55C34.7181 104.494 34.3914 104.466 34.0647 104.466C33.4861 104.466 32.9914 104.578 32.5807 104.802C32.1794 105.026 31.8761 105.409 31.6707 105.95C31.4654 106.482 31.3627 107.224 31.3627 108.176C31.3627 109.11 31.4701 109.856 31.6847 110.416C31.8994 110.967 32.2167 111.364 32.6367 111.606C33.0567 111.849 33.5794 111.97 34.2047 111.97C34.5127 111.97 34.8207 111.947 35.1287 111.9C35.4367 111.854 35.7307 111.784 36.0107 111.69V113.02C35.7587 113.095 35.4787 113.151 35.1707 113.188C34.8627 113.235 34.5221 113.258 34.1487 113.258ZM39.2814 113.104H37.8394V103.052H39.2814V106.566C39.6174 106.342 39.9534 106.156 40.2894 106.006C40.7747 105.792 41.26 105.684 41.7454 105.684C42.3894 105.684 42.884 105.857 43.2294 106.202C43.584 106.548 43.7614 107.094 43.7614 107.84V113.104H42.3054V108.092C42.3054 107.719 42.212 107.448 42.0254 107.28C41.8387 107.103 41.5634 107.014 41.1994 107.014C40.8447 107.014 40.476 107.08 40.0934 107.21C39.8414 107.304 39.5707 107.42 39.2814 107.56V113.104ZM48.8138 105.684C49.3925 105.684 49.8918 105.782 50.3118 105.978C50.7692 105.969 51.0678 105.857 51.2078 105.642C51.3758 105.409 51.4598 105.064 51.4598 104.606V104.256H52.7198V104.606C52.7198 105.344 52.5518 105.927 52.2158 106.356C52.0012 106.627 51.7165 106.814 51.3618 106.916C51.7445 107.532 51.9358 108.391 51.9358 109.492C51.9358 110.771 51.6745 111.718 51.1518 112.334C50.6292 112.95 49.8498 113.258 48.8138 113.258C47.7778 113.258 46.9938 112.95 46.4618 112.334C45.9392 111.709 45.6778 110.748 45.6778 109.45C45.6778 108.172 45.9392 107.224 46.4618 106.608C46.9938 105.992 47.7778 105.684 48.8138 105.684ZM48.8138 106.888C48.4312 106.888 48.1185 106.977 47.8758 107.154C47.6332 107.332 47.4558 107.607 47.3438 107.98C47.2318 108.354 47.1758 108.844 47.1758 109.45C47.1758 110.066 47.2318 110.566 47.3438 110.948C47.4558 111.331 47.6332 111.611 47.8758 111.788C48.1185 111.956 48.4312 112.04 48.8138 112.04C49.1965 112.04 49.5092 111.956 49.7518 111.788C49.9945 111.62 50.1718 111.35 50.2838 110.976C50.4052 110.594 50.4658 110.099 50.4658 109.492C50.4658 108.876 50.4052 108.377 50.2838 107.994C50.1718 107.612 49.9945 107.332 49.7518 107.154C49.5092 106.977 49.1965 106.888 48.8138 106.888ZM55.5239 105.838V113.104H54.0679V105.838H55.5239ZM54.7959 104.704C54.4972 104.704 54.2732 104.639 54.1239 104.508C53.9839 104.378 53.9139 104.163 53.9139 103.864C53.9139 103.556 53.9839 103.337 54.1239 103.206C54.2732 103.076 54.4972 103.01 54.7959 103.01C55.1226 103.01 55.3512 103.076 55.4819 103.206C55.6126 103.337 55.6779 103.556 55.6779 103.864C55.6779 104.163 55.6126 104.378 55.4819 104.508C55.3512 104.639 55.1226 104.704 54.7959 104.704ZM66.9996 115.988H65.5436V112.418C65.245 112.642 64.9463 112.824 64.6476 112.964C64.2183 113.16 63.7936 113.258 63.3736 113.258C62.8696 113.258 62.4263 113.146 62.0436 112.922C61.661 112.698 61.3623 112.316 61.1476 111.774C60.9423 111.233 60.8396 110.482 60.8396 109.52C60.8396 108.559 60.9563 107.798 61.1896 107.238C61.4323 106.678 61.7823 106.282 62.2396 106.048C62.7063 105.806 63.2756 105.684 63.9476 105.684C64.489 105.684 65.0116 105.75 65.5156 105.88C66.0196 106.002 66.5143 106.17 66.9996 106.384V115.988ZM63.8216 111.998C64.1016 111.998 64.4236 111.924 64.7876 111.774C65.021 111.672 65.273 111.541 65.5436 111.382V107.154C65.3663 107.089 65.1936 107.038 65.0256 107C64.6896 106.926 64.335 106.888 63.9616 106.888C63.5696 106.888 63.2523 106.968 63.0096 107.126C62.7763 107.285 62.6036 107.556 62.4916 107.938C62.3796 108.321 62.3236 108.848 62.3236 109.52C62.3236 110.435 62.4543 111.079 62.7156 111.452C62.977 111.816 63.3456 111.998 63.8216 111.998ZM73.6654 105.838H75.1074V113.104H73.7214V112.362C73.3854 112.596 73.0494 112.787 72.7134 112.936C72.2467 113.151 71.7614 113.258 71.2574 113.258C70.6507 113.258 70.17 113.086 69.8154 112.74C69.47 112.386 69.2974 111.84 69.2974 111.102V105.838H70.7534V110.794C70.7534 111.177 70.8467 111.462 71.0334 111.648C71.2294 111.835 71.5 111.928 71.8454 111.928C72.2 111.928 72.5594 111.863 72.9234 111.732C73.1567 111.648 73.404 111.541 73.6654 111.41V105.838ZM82.7245 113.104H81.3665V112.222C81.1145 112.474 80.8625 112.675 80.6105 112.824C80.1438 113.114 79.6351 113.258 79.0845 113.258C78.6831 113.258 78.3238 113.184 78.0065 113.034C77.6985 112.885 77.4558 112.656 77.2785 112.348C77.1011 112.031 77.0125 111.634 77.0125 111.158C77.0125 110.412 77.2085 109.866 77.6005 109.52C78.0018 109.166 78.5805 108.988 79.3365 108.988H81.2965V108.204C81.2965 107.775 81.1891 107.462 80.9745 107.266C80.7691 107.061 80.4191 106.958 79.9245 106.958C79.5138 106.958 79.1031 106.996 78.6925 107.07C78.2818 107.136 77.8851 107.224 77.5025 107.336V106.062C77.9225 105.95 78.3611 105.862 78.8185 105.796C79.2758 105.722 79.6958 105.684 80.0785 105.684C80.9745 105.684 81.6371 105.862 82.0665 106.216C82.5051 106.571 82.7245 107.159 82.7245 107.98V113.104ZM81.2965 109.996H79.6585C79.2291 109.996 78.9071 110.076 78.6925 110.234C78.4778 110.384 78.3705 110.659 78.3705 111.06C78.3705 111.462 78.4685 111.742 78.6645 111.9C78.8698 112.05 79.1265 112.124 79.4345 112.124C79.7891 112.124 80.1438 112.031 80.4985 111.844C80.7598 111.704 81.0258 111.522 81.2965 111.298V109.996ZM80.5405 102.87H82.1085L80.6805 104.886H79.4065L80.5405 102.87ZM92.1506 113.104H90.6806V104.942L88.3146 106.076V104.718L90.9186 103.332H92.1506V113.104ZM98.8383 103.178C99.8276 103.178 100.584 103.407 101.106 103.864C101.629 104.312 101.89 104.961 101.89 105.81C101.89 106.65 101.629 107.285 101.106 107.714C100.985 107.817 100.85 107.91 100.7 107.994C100.906 108.088 101.092 108.2 101.26 108.33C101.83 108.778 102.114 109.441 102.114 110.318C102.114 111.298 101.839 112.036 101.288 112.53C100.738 113.016 99.9209 113.258 98.8383 113.258C97.7649 113.258 96.9483 113.016 96.3883 112.53C95.8376 112.036 95.5623 111.298 95.5623 110.318C95.5623 109.441 95.8516 108.778 96.4303 108.33C96.5983 108.2 96.7849 108.088 96.9903 107.994C96.8409 107.91 96.7056 107.817 96.5843 107.714C96.0523 107.285 95.7863 106.65 95.7863 105.81C95.7863 104.961 96.0476 104.312 96.5703 103.864C97.0929 103.407 97.8489 103.178 98.8383 103.178ZM98.8383 108.568C98.2596 108.568 97.8163 108.713 97.5083 109.002C97.2096 109.282 97.0603 109.716 97.0603 110.304C97.0603 110.902 97.2096 111.35 97.5083 111.648C97.8069 111.938 98.2503 112.082 98.8383 112.082C99.4263 112.082 99.8696 111.938 100.168 111.648C100.476 111.35 100.63 110.902 100.63 110.304C100.63 109.716 100.481 109.282 100.182 109.002C99.8836 108.713 99.4356 108.568 98.8383 108.568ZM98.8383 104.368C98.3156 104.368 97.9189 104.49 97.6483 104.732C97.3776 104.975 97.2423 105.339 97.2423 105.824C97.2423 106.375 97.3729 106.781 97.6343 107.042C97.9049 107.304 98.3063 107.434 98.8383 107.434C99.3703 107.434 99.7669 107.304 100.028 107.042C100.299 106.781 100.434 106.375 100.434 105.824C100.434 105.339 100.299 104.975 100.028 104.732C99.7669 104.49 99.3703 104.368 98.8383 104.368ZM106.604 113.258C105.885 113.258 105.288 113.086 104.812 112.74C104.336 112.386 103.977 111.835 103.734 111.088C103.501 110.342 103.384 109.376 103.384 108.19C103.384 106.436 103.65 105.162 104.182 104.368C104.714 103.575 105.521 103.178 106.604 103.178C107.332 103.178 107.934 103.356 108.41 103.71C108.886 104.056 109.241 104.602 109.474 105.348C109.707 106.095 109.824 107.066 109.824 108.26C109.824 109.436 109.707 110.393 109.474 111.13C109.241 111.858 108.886 112.395 108.41 112.74C107.934 113.086 107.332 113.258 106.604 113.258ZM106.604 111.97C107.015 111.97 107.346 111.849 107.598 111.606C107.85 111.354 108.032 110.958 108.144 110.416C108.265 109.866 108.321 109.147 108.312 108.26C108.312 107.346 108.256 106.613 108.144 106.062C108.032 105.502 107.85 105.096 107.598 104.844C107.346 104.592 107.015 104.466 106.604 104.466C106.203 104.466 105.876 104.592 105.624 104.844C105.372 105.087 105.185 105.484 105.064 106.034C104.952 106.576 104.896 107.294 104.896 108.19C104.896 109.096 104.952 109.828 105.064 110.388C105.185 110.939 105.372 111.34 105.624 111.592C105.876 111.844 106.203 111.97 106.604 111.97ZM115.031 105.838H116.431V106.594C116.748 106.342 117.065 106.142 117.383 105.992C117.812 105.787 118.241 105.684 118.671 105.684C119.165 105.684 119.599 105.801 119.973 106.034C120.355 106.258 120.649 106.641 120.855 107.182C121.06 107.724 121.163 108.475 121.163 109.436C121.163 110.388 121.041 111.144 120.799 111.704C120.565 112.264 120.22 112.666 119.763 112.908C119.315 113.142 118.764 113.258 118.111 113.258C117.588 113.258 117.089 113.193 116.613 113.062C116.566 113.053 116.519 113.039 116.473 113.02V115.988H115.031V105.838ZM118.195 106.958C117.905 106.958 117.583 107.033 117.229 107.182C116.995 107.276 116.743 107.411 116.473 107.588V111.76C116.669 111.835 116.855 111.896 117.033 111.942C117.35 112.026 117.691 112.068 118.055 112.068C118.447 112.068 118.764 111.989 119.007 111.83C119.249 111.672 119.427 111.401 119.539 111.018C119.651 110.626 119.707 110.099 119.707 109.436C119.707 108.512 119.576 107.868 119.315 107.504C119.053 107.14 118.68 106.958 118.195 106.958ZM124.567 113.104H123.125V103.052H124.567V106.566C124.903 106.342 125.239 106.156 125.575 106.006C126.06 105.792 126.545 105.684 127.031 105.684C127.675 105.684 128.169 105.857 128.515 106.202C128.869 106.548 129.047 107.094 129.047 107.84V113.104H127.591V108.092C127.591 107.719 127.497 107.448 127.311 107.28C127.124 107.103 126.849 107.014 126.485 107.014C126.13 107.014 125.761 107.08 125.379 107.21C125.127 107.304 124.856 107.42 124.567 107.56V113.104ZM135.681 105.838H137.123V113.104H135.737V112.362C135.401 112.596 135.065 112.787 134.729 112.936C134.262 113.151 133.777 113.258 133.273 113.258C132.666 113.258 132.186 113.086 131.831 112.74C131.486 112.386 131.313 111.84 131.313 111.102V105.838H132.769V110.794C132.769 111.177 132.862 111.462 133.049 111.648C133.245 111.835 133.516 111.928 133.861 111.928C134.216 111.928 134.575 111.863 134.939 111.732C135.172 111.648 135.42 111.541 135.681 111.41V105.838ZM134.575 102.87H136.143L134.715 104.886H133.441L134.575 102.87ZM141.24 103.976V105.838H143.396V107.028H141.24V111.032C141.24 111.424 141.315 111.686 141.464 111.816C141.623 111.947 141.861 112.012 142.178 112.012C142.393 112.012 142.593 112.003 142.78 111.984C142.967 111.956 143.172 111.919 143.396 111.872V113.09C143.153 113.137 142.901 113.174 142.64 113.202C142.379 113.24 142.131 113.258 141.898 113.258C141.431 113.258 141.044 113.193 140.736 113.062C140.428 112.932 140.19 112.717 140.022 112.418C139.863 112.11 139.784 111.69 139.784 111.158V107.028H138.608V105.838H139.84L140.092 103.976H141.24ZM158.511 113.104H157.055V108.092C157.055 107.719 156.966 107.448 156.789 107.28C156.621 107.103 156.369 107.014 156.033 107.014C155.706 107.014 155.361 107.084 154.997 107.224C154.745 107.318 154.484 107.434 154.213 107.574C154.213 107.658 154.213 107.747 154.213 107.84V113.104H152.757V108.092C152.757 107.719 152.668 107.448 152.491 107.28C152.323 107.103 152.071 107.014 151.735 107.014C151.39 107.014 151.03 107.084 150.657 107.224C150.414 107.308 150.158 107.42 149.887 107.56V113.104H148.445V105.838H149.845V106.608C150.181 106.375 150.517 106.179 150.853 106.02C151.329 105.796 151.805 105.684 152.281 105.684C152.897 105.684 153.373 105.857 153.709 106.202C153.83 106.324 153.928 106.468 154.003 106.636C154.386 106.366 154.778 106.146 155.179 105.978C155.655 105.782 156.117 105.684 156.565 105.684C157.2 105.684 157.68 105.857 158.007 106.202C158.343 106.548 158.511 107.094 158.511 107.84V113.104ZM163.576 105.684C164.612 105.684 165.391 105.997 165.914 106.622C166.436 107.248 166.698 108.204 166.698 109.492C166.698 110.771 166.436 111.718 165.914 112.334C165.391 112.95 164.612 113.258 163.576 113.258C162.54 113.258 161.756 112.95 161.224 112.334C160.701 111.709 160.44 110.748 160.44 109.45C160.44 108.172 160.701 107.224 161.224 106.608C161.756 105.992 162.54 105.684 163.576 105.684ZM163.576 112.04C163.958 112.04 164.271 111.956 164.514 111.788C164.756 111.62 164.934 111.35 165.046 110.976C165.167 110.594 165.228 110.099 165.228 109.492C165.228 108.876 165.167 108.377 165.046 107.994C164.934 107.612 164.756 107.332 164.514 107.154C164.271 106.977 163.958 106.888 163.576 106.888C163.193 106.888 162.88 106.977 162.638 107.154C162.395 107.332 162.218 107.607 162.106 107.98C161.994 108.354 161.938 108.844 161.938 109.45C161.938 110.066 161.994 110.566 162.106 110.948C162.218 111.331 162.395 111.611 162.638 111.788C162.88 111.956 163.193 112.04 163.576 112.04ZM164.304 102.87L165.592 104.886H164.346L163.52 103.738L162.708 104.886H161.49L162.792 102.87H164.304ZM163.534 115.89C163.226 115.89 163.002 115.825 162.862 115.694C162.722 115.564 162.652 115.349 162.652 115.05C162.652 114.742 162.722 114.523 162.862 114.392C163.002 114.262 163.226 114.196 163.534 114.196C163.851 114.196 164.075 114.262 164.206 114.392C164.346 114.523 164.416 114.742 164.416 115.05C164.416 115.349 164.346 115.564 164.206 115.694C164.075 115.825 163.851 115.89 163.534 115.89ZM170.43 103.976V105.838H172.586V107.028H170.43V111.032C170.43 111.424 170.504 111.686 170.654 111.816C170.812 111.947 171.05 112.012 171.368 112.012C171.582 112.012 171.783 112.003 171.97 111.984C172.156 111.956 172.362 111.919 172.586 111.872V113.09C172.343 113.137 172.091 113.174 171.83 113.202C171.568 113.24 171.321 113.258 171.088 113.258C170.621 113.258 170.234 113.193 169.926 113.062C169.618 112.932 169.38 112.717 169.212 112.418C169.053 112.11 168.974 111.69 168.974 111.158V107.028H167.798V105.838H169.03L169.282 103.976H170.43ZM179.076 113.104H177.634V105.838H179.034V106.594C179.38 106.352 179.73 106.156 180.084 106.006C180.57 105.792 181.055 105.684 181.54 105.684C182.184 105.684 182.679 105.862 183.024 106.216C183.379 106.562 183.556 107.108 183.556 107.854V113.104H182.1V108.106C182.1 107.733 182.007 107.458 181.82 107.28C181.634 107.103 181.358 107.014 180.994 107.014C180.64 107.014 180.271 107.08 179.888 107.21C179.636 107.304 179.366 107.42 179.076 107.56V113.104ZM188.567 110.626C188.296 110.626 188.049 110.608 187.825 110.57L187.671 110.612C187.438 110.696 187.265 110.79 187.153 110.892C187.05 110.995 186.999 111.13 186.999 111.298C186.999 111.438 187.046 111.56 187.139 111.662C187.242 111.756 187.41 111.802 187.643 111.802H189.911C190.639 111.802 191.185 111.956 191.549 112.264C191.922 112.572 192.109 113.025 192.109 113.622C192.109 114.434 191.787 115.055 191.143 115.484C190.508 115.923 189.622 116.142 188.483 116.142C187.456 116.142 186.672 115.951 186.131 115.568C185.59 115.195 185.319 114.724 185.319 114.154C185.319 113.744 185.473 113.384 185.781 113.076C185.921 112.918 186.108 112.782 186.341 112.67C186.22 112.605 186.117 112.526 186.033 112.432C185.79 112.162 185.669 111.854 185.669 111.508C185.669 111.154 185.79 110.841 186.033 110.57C186.192 110.393 186.406 110.253 186.677 110.15C186.593 110.094 186.518 110.038 186.453 109.982C185.949 109.544 185.697 108.932 185.697 108.148C185.697 107.392 185.949 106.795 186.453 106.356C186.957 105.908 187.666 105.684 188.581 105.684C188.982 105.684 189.356 105.731 189.701 105.824C189.729 105.824 189.757 105.829 189.785 105.838H192.305V106.986H191.031C191.068 107.033 191.106 107.084 191.143 107.14C191.348 107.439 191.451 107.808 191.451 108.246C191.451 108.704 191.339 109.114 191.115 109.478C190.891 109.842 190.564 110.127 190.135 110.332C189.706 110.528 189.183 110.626 188.567 110.626ZM187.153 113.006C187.06 113.081 186.98 113.16 186.915 113.244C186.766 113.45 186.691 113.678 186.691 113.93C186.691 114.276 186.85 114.551 187.167 114.756C187.484 114.971 187.965 115.078 188.609 115.078C189.337 115.078 189.874 114.952 190.219 114.7C190.574 114.448 190.751 114.131 190.751 113.748C190.751 113.515 190.681 113.333 190.541 113.202C190.401 113.072 190.14 113.006 189.757 113.006H187.153ZM188.595 109.548C189.108 109.548 189.482 109.432 189.715 109.198C189.958 108.956 190.079 108.615 190.079 108.176C190.079 107.738 189.958 107.392 189.715 107.14C189.472 106.888 189.099 106.762 188.595 106.762C188.082 106.762 187.704 106.884 187.461 107.126C187.218 107.369 187.097 107.705 187.097 108.134C187.097 108.573 187.218 108.918 187.461 109.17C187.713 109.422 188.091 109.548 188.595 109.548ZM199.045 113.104H197.687V112.222C197.435 112.474 197.183 112.675 196.931 112.824C196.464 113.114 195.955 113.258 195.405 113.258C195.003 113.258 194.644 113.184 194.327 113.034C194.019 112.885 193.776 112.656 193.599 112.348C193.421 112.031 193.333 111.634 193.333 111.158C193.333 110.412 193.529 109.866 193.921 109.52C194.322 109.166 194.901 108.988 195.657 108.988H197.617V108.204C197.617 107.775 197.509 107.462 197.295 107.266C197.089 107.061 196.739 106.958 196.245 106.958C195.834 106.958 195.423 106.996 195.013 107.07C194.602 107.136 194.205 107.224 193.823 107.336V106.062C194.243 105.95 194.681 105.862 195.139 105.796C195.596 105.722 196.016 105.684 196.399 105.684C197.295 105.684 197.957 105.862 198.387 106.216C198.825 106.571 199.045 107.159 199.045 107.98V113.104ZM197.617 109.996H195.979C195.549 109.996 195.227 110.076 195.013 110.234C194.798 110.384 194.691 110.659 194.691 111.06C194.691 111.462 194.789 111.742 194.985 111.9C195.19 112.05 195.447 112.124 195.755 112.124C196.109 112.124 196.464 112.031 196.819 111.844C197.08 111.704 197.346 111.522 197.617 111.298V109.996ZM195.867 102.87L197.001 104.886H195.727L194.299 102.87H195.867ZM201.501 116.142C201.314 116.142 201.127 116.128 200.941 116.1C200.763 116.072 200.6 116.04 200.451 116.002V114.742C200.591 114.78 200.735 114.808 200.885 114.826C201.034 114.845 201.193 114.854 201.361 114.854C201.762 114.854 202.056 114.775 202.243 114.616C202.439 114.467 202.607 114.164 202.747 113.706L202.915 113.174L200.241 105.838H201.781L203.601 111.41L205.295 105.838H206.765L203.923 114.224C203.755 114.719 203.559 115.106 203.335 115.386C203.111 115.666 202.849 115.862 202.551 115.974C202.252 116.086 201.902 116.142 201.501 116.142ZM213.555 113.258C213.135 113.258 212.734 113.226 212.351 113.16C211.978 113.095 211.628 113.016 211.301 112.922V111.662C211.721 111.793 212.113 111.896 212.477 111.97C212.85 112.036 213.205 112.068 213.541 112.068C213.989 112.068 214.306 112.003 214.493 111.872C214.689 111.732 214.787 111.522 214.787 111.242C214.787 110.981 214.698 110.776 214.521 110.626C214.353 110.477 214.134 110.356 213.863 110.262C213.592 110.16 213.303 110.062 212.995 109.968C212.696 109.866 212.412 109.74 212.141 109.59C211.87 109.432 211.646 109.217 211.469 108.946C211.301 108.676 211.217 108.321 211.217 107.882C211.217 107.164 211.436 106.618 211.875 106.244C212.314 105.871 212.976 105.684 213.863 105.684C214.227 105.684 214.582 105.712 214.927 105.768C215.282 105.815 215.594 105.876 215.865 105.95V107.196C215.538 107.094 215.198 107.019 214.843 106.972C214.488 106.916 214.166 106.888 213.877 106.888C213.448 106.888 213.13 106.958 212.925 107.098C212.72 107.238 212.617 107.453 212.617 107.742C212.617 108.004 212.701 108.209 212.869 108.358C213.046 108.498 213.27 108.62 213.541 108.722C213.812 108.816 214.096 108.914 214.395 109.016C214.703 109.119 214.992 109.254 215.263 109.422C215.534 109.581 215.753 109.8 215.921 110.08C216.098 110.351 216.187 110.706 216.187 111.144C216.187 111.863 215.972 112.395 215.543 112.74C215.114 113.086 214.451 113.258 213.555 113.258ZM221.129 113.258C220.317 113.258 219.65 113.128 219.127 112.866C218.614 112.605 218.231 112.194 217.979 111.634C217.736 111.074 217.615 110.346 217.615 109.45C217.615 108.2 217.881 107.262 218.413 106.636C218.945 106.002 219.729 105.684 220.765 105.684C221.717 105.684 222.431 105.946 222.907 106.468C223.383 106.982 223.621 107.77 223.621 108.834C223.621 108.984 223.612 109.152 223.593 109.338C223.584 109.516 223.565 109.684 223.537 109.842H219.099C219.127 110.309 219.192 110.692 219.295 110.99C219.435 111.373 219.659 111.648 219.967 111.816C220.284 111.975 220.7 112.054 221.213 112.054C221.586 112.054 221.927 112.031 222.235 111.984C222.552 111.928 222.884 111.854 223.229 111.76V113.006C222.93 113.081 222.604 113.142 222.249 113.188C221.904 113.235 221.53 113.258 221.129 113.258ZM219.113 108.82H222.207V108.75C222.207 108.06 222.081 107.57 221.829 107.28C221.586 106.982 221.227 106.832 220.751 106.832C220.154 106.832 219.729 107.038 219.477 107.448C219.281 107.747 219.16 108.204 219.113 108.82ZM220.625 104.41L220.415 104.27C220.322 104.205 220.238 104.154 220.163 104.116C220.088 104.07 220.014 104.046 219.939 104.046C219.827 104.046 219.734 104.098 219.659 104.2C219.584 104.294 219.547 104.434 219.547 104.62H218.497C218.497 104.126 218.614 103.729 218.847 103.43C219.08 103.122 219.402 102.968 219.813 102.968C219.981 102.968 220.144 103.001 220.303 103.066C220.471 103.122 220.639 103.206 220.807 103.318L221.003 103.458C221.096 103.514 221.18 103.566 221.255 103.612C221.339 103.659 221.423 103.682 221.507 103.682C221.61 103.682 221.698 103.636 221.773 103.542C221.848 103.44 221.885 103.3 221.885 103.122H222.935C222.935 103.608 222.818 104.004 222.585 104.312C222.352 104.611 222.034 104.76 221.633 104.76C221.456 104.76 221.288 104.732 221.129 104.676C220.97 104.611 220.802 104.522 220.625 104.41ZM234.182 113.104H232.824V112.222C232.572 112.474 232.32 112.675 232.068 112.824C231.601 113.114 231.092 113.258 230.542 113.258C230.14 113.258 229.781 113.184 229.464 113.034C229.156 112.885 228.913 112.656 228.736 112.348C228.558 112.031 228.47 111.634 228.47 111.158C228.47 110.412 228.666 109.866 229.058 109.52C229.459 109.166 230.038 108.988 230.794 108.988H232.754V108.204C232.754 107.775 232.646 107.462 232.432 107.266C232.226 107.061 231.876 106.958 231.382 106.958C230.971 106.958 230.56 106.996 230.15 107.07C229.739 107.136 229.342 107.224 228.96 107.336V106.062C229.38 105.95 229.818 105.862 230.276 105.796C230.733 105.722 231.153 105.684 231.536 105.684C232.432 105.684 233.094 105.862 233.524 106.216C233.962 106.571 234.182 107.159 234.182 107.98V113.104ZM232.754 109.996H231.116C230.686 109.996 230.364 110.076 230.15 110.234C229.935 110.384 229.828 110.659 229.828 111.06C229.828 111.462 229.926 111.742 230.122 111.9C230.327 112.05 230.584 112.124 230.892 112.124C231.246 112.124 231.601 112.031 231.956 111.844C232.217 111.704 232.483 111.522 232.754 111.298V109.996ZM231.928 104.914H230.934V104.704C230.934 104.499 230.98 104.345 231.074 104.242C231.176 104.13 231.293 104.042 231.424 103.976C231.554 103.911 231.666 103.846 231.76 103.78C231.862 103.715 231.914 103.626 231.914 103.514C231.914 103.337 231.741 103.248 231.396 103.248C231.209 103.248 231.018 103.272 230.822 103.318C230.635 103.365 230.444 103.43 230.248 103.514V102.604C230.434 102.539 230.64 102.483 230.864 102.436C231.097 102.38 231.335 102.352 231.578 102.352C232.044 102.352 232.408 102.446 232.67 102.632C232.931 102.819 233.062 103.071 233.062 103.388C233.062 103.631 233.001 103.822 232.88 103.962C232.768 104.102 232.637 104.214 232.488 104.298C232.338 104.382 232.208 104.462 232.096 104.536C231.984 104.602 231.928 104.686 231.928 104.788V104.914ZM237.906 113.104H236.464V105.838H237.864V106.594C238.21 106.352 238.56 106.156 238.914 106.006C239.4 105.792 239.885 105.684 240.37 105.684C241.014 105.684 241.509 105.862 241.854 106.216C242.209 106.562 242.386 107.108 242.386 107.854V113.104H240.93V108.106C240.93 107.733 240.837 107.458 240.65 107.28C240.464 107.103 240.188 107.014 239.824 107.014C239.47 107.014 239.101 107.08 238.718 107.21C238.466 107.304 238.196 107.42 237.906 107.56V113.104ZM246.137 113.104H244.695V103.052H246.137V106.566C246.473 106.342 246.809 106.156 247.145 106.006C247.63 105.792 248.116 105.684 248.601 105.684C249.245 105.684 249.74 105.857 250.085 106.202C250.44 106.548 250.617 107.094 250.617 107.84V113.104H249.161V108.092C249.161 107.719 249.068 107.448 248.881 107.28C248.694 107.103 248.419 107.014 248.055 107.014C247.7 107.014 247.332 107.08 246.949 107.21C246.697 107.304 246.426 107.42 246.137 107.56V113.104ZM66.2902 134.104H64.8482V124.052H66.2902V127.566C66.6262 127.342 66.9622 127.156 67.2982 127.006C67.7835 126.792 68.2688 126.684 68.7542 126.684C69.3982 126.684 69.8928 126.857 70.2382 127.202C70.5928 127.548 70.7702 128.094 70.7702 128.84V134.104H69.3142V129.092C69.3142 128.719 69.2208 128.448 69.0342 128.28C68.8475 128.103 68.5722 128.014 68.2082 128.014C67.8535 128.014 67.4848 128.08 67.1022 128.21C66.8502 128.304 66.5795 128.42 66.2902 128.56V134.104ZM77.4046 126.838H78.1326C78.6553 126.838 78.996 126.736 79.1546 126.53C79.3226 126.325 79.4066 126.017 79.4066 125.606V125.256H80.6806V125.606C80.6806 126.297 80.508 126.848 80.1626 127.258C79.8546 127.613 79.4206 127.814 78.8606 127.86V134.104H77.4606V133.362C77.1246 133.586 76.7886 133.778 76.4526 133.936C75.9766 134.151 75.4773 134.258 74.9546 134.258C74.3666 134.258 73.9 134.086 73.5546 133.74C73.2093 133.386 73.0366 132.84 73.0366 132.102V126.838H74.4926V131.794C74.4926 132.177 74.586 132.466 74.7726 132.662C74.9686 132.849 75.2393 132.942 75.5846 132.942C75.9393 132.942 76.294 132.872 76.6486 132.732C76.882 132.648 77.134 132.541 77.4046 132.41V126.838ZM84.3949 126.684C84.9736 126.684 85.4729 126.782 85.8929 126.978C86.3502 126.969 86.6489 126.857 86.7889 126.642C86.9569 126.409 87.0409 126.064 87.0409 125.606V125.256H88.3009V125.606C88.3009 126.344 88.1329 126.927 87.7969 127.356C87.5822 127.627 87.2976 127.814 86.9429 127.916C87.3256 128.532 87.5169 129.391 87.5169 130.492C87.5169 131.771 87.2556 132.718 86.7329 133.334C86.2102 133.95 85.4309 134.258 84.3949 134.258C83.3589 134.258 82.5749 133.95 82.0429 133.334C81.5202 132.709 81.2589 131.748 81.2589 130.45C81.2589 129.172 81.5202 128.224 82.0429 127.608C82.5749 126.992 83.3589 126.684 84.3949 126.684ZM84.3949 127.888C84.0122 127.888 83.6996 127.977 83.4569 128.154C83.2142 128.332 83.0369 128.607 82.9249 128.98C82.8129 129.354 82.7569 129.844 82.7569 130.45C82.7569 131.066 82.8129 131.566 82.9249 131.948C83.0369 132.331 83.2142 132.611 83.4569 132.788C83.6996 132.956 84.0122 133.04 84.3949 133.04C84.7776 133.04 85.0902 132.956 85.3329 132.788C85.5756 132.62 85.7529 132.35 85.8649 131.976C85.9862 131.594 86.0469 131.099 86.0469 130.492C86.0469 129.876 85.9862 129.377 85.8649 128.994C85.7529 128.612 85.5756 128.332 85.3329 128.154C85.0902 127.977 84.7776 127.888 84.3949 127.888ZM84.7729 125.914H83.7789V125.704C83.7789 125.499 83.8256 125.345 83.9189 125.242C84.0216 125.13 84.1382 125.042 84.2689 124.976C84.3996 124.911 84.5116 124.846 84.6049 124.78C84.7076 124.715 84.7589 124.626 84.7589 124.514C84.7589 124.337 84.5862 124.248 84.2409 124.248C84.0542 124.248 83.8629 124.272 83.6669 124.318C83.4802 124.365 83.2889 124.43 83.0929 124.514V123.604C83.2796 123.539 83.4849 123.483 83.7089 123.436C83.9422 123.38 84.1802 123.352 84.4229 123.352C84.8896 123.352 85.2536 123.446 85.5149 123.632C85.7762 123.819 85.9069 124.071 85.9069 124.388C85.9069 124.631 85.8462 124.822 85.7249 124.962C85.6129 125.102 85.4822 125.214 85.3329 125.298C85.1836 125.382 85.0529 125.462 84.9409 125.536C84.8289 125.602 84.7729 125.686 84.7729 125.788V125.914ZM91.0909 134.104H89.6489V126.838H91.0489V127.594C91.3943 127.352 91.7443 127.156 92.0989 127.006C92.5843 126.792 93.0696 126.684 93.5549 126.684C94.1989 126.684 94.6936 126.862 95.0389 127.216C95.3936 127.562 95.5709 128.108 95.5709 128.854V134.104H94.1149V129.106C94.1149 128.733 94.0216 128.458 93.8349 128.28C93.6483 128.103 93.3729 128.014 93.0089 128.014C92.6543 128.014 92.2856 128.08 91.9029 128.21C91.6509 128.304 91.3803 128.42 91.0909 128.56V134.104ZM100.582 131.626C100.311 131.626 100.064 131.608 99.8397 131.57L99.6857 131.612C99.4524 131.696 99.2797 131.79 99.1677 131.892C99.0651 131.995 99.0137 132.13 99.0137 132.298C99.0137 132.438 99.0604 132.56 99.1537 132.662C99.2564 132.756 99.4244 132.802 99.6577 132.802H101.926C102.654 132.802 103.2 132.956 103.564 133.264C103.937 133.572 104.124 134.025 104.124 134.622C104.124 135.434 103.802 136.055 103.158 136.484C102.523 136.923 101.636 137.142 100.498 137.142C99.4711 137.142 98.6871 136.951 98.1457 136.568C97.6044 136.195 97.3337 135.724 97.3337 135.154C97.3337 134.744 97.4877 134.384 97.7957 134.076C97.9357 133.918 98.1224 133.782 98.3557 133.67C98.2344 133.605 98.1317 133.526 98.0477 133.432C97.8051 133.162 97.6837 132.854 97.6837 132.508C97.6837 132.154 97.8051 131.841 98.0477 131.57C98.2064 131.393 98.4211 131.253 98.6917 131.15C98.6077 131.094 98.5331 131.038 98.4677 130.982C97.9637 130.544 97.7117 129.932 97.7117 129.148C97.7117 128.392 97.9637 127.795 98.4677 127.356C98.9717 126.908 99.6811 126.684 100.596 126.684C100.997 126.684 101.37 126.731 101.716 126.824C101.744 126.824 101.772 126.829 101.8 126.838H104.32V127.986H103.046C103.083 128.033 103.12 128.084 103.158 128.14C103.363 128.439 103.466 128.808 103.466 129.246C103.466 129.704 103.354 130.114 103.13 130.478C102.906 130.842 102.579 131.127 102.15 131.332C101.72 131.528 101.198 131.626 100.582 131.626ZM99.1677 134.006C99.0744 134.081 98.9951 134.16 98.9297 134.244C98.7804 134.45 98.7057 134.678 98.7057 134.93C98.7057 135.276 98.8644 135.551 99.1817 135.756C99.4991 135.971 99.9797 136.078 100.624 136.078C101.352 136.078 101.888 135.952 102.234 135.7C102.588 135.448 102.766 135.131 102.766 134.748C102.766 134.515 102.696 134.333 102.556 134.202C102.416 134.072 102.154 134.006 101.772 134.006H99.1677ZM100.61 130.548C101.123 130.548 101.496 130.432 101.73 130.198C101.972 129.956 102.094 129.615 102.094 129.176C102.094 128.738 101.972 128.392 101.73 128.14C101.487 127.888 101.114 127.762 100.61 127.762C100.096 127.762 99.7184 127.884 99.4757 128.126C99.2331 128.369 99.1117 128.705 99.1117 129.134C99.1117 129.573 99.2331 129.918 99.4757 130.17C99.7277 130.422 100.106 130.548 100.61 130.548ZM112.981 134.104L111.385 131.5L109.859 134.104H108.319L110.615 130.352L108.459 126.838H110.027L111.455 129.274L112.897 126.838H114.395L112.253 130.394L114.549 134.104H112.981ZM121.177 134.104H119.819V133.222C119.567 133.474 119.315 133.675 119.063 133.824C118.596 134.114 118.087 134.258 117.537 134.258C117.135 134.258 116.776 134.184 116.459 134.034C116.151 133.885 115.908 133.656 115.731 133.348C115.553 133.031 115.465 132.634 115.465 132.158C115.465 131.412 115.661 130.866 116.053 130.52C116.454 130.166 117.033 129.988 117.789 129.988H119.749V129.204C119.749 128.775 119.641 128.462 119.427 128.266C119.221 128.061 118.871 127.958 118.377 127.958C117.966 127.958 117.555 127.996 117.145 128.07C116.734 128.136 116.337 128.224 115.955 128.336V127.062C116.375 126.95 116.813 126.862 117.271 126.796C117.728 126.722 118.148 126.684 118.531 126.684C119.427 126.684 120.089 126.862 120.519 127.216C120.957 127.571 121.177 128.159 121.177 128.98V134.104ZM119.749 130.996H118.111C117.681 130.996 117.359 131.076 117.145 131.234C116.93 131.384 116.823 131.659 116.823 132.06C116.823 132.462 116.921 132.742 117.117 132.9C117.322 133.05 117.579 133.124 117.887 133.124C118.241 133.124 118.596 133.031 118.951 132.844C119.212 132.704 119.478 132.522 119.749 132.298V130.996ZM119.301 124.08L120.533 125.984H119.287L118.475 124.892L117.649 125.984H116.431L117.677 124.08H119.301ZM118.937 122.078H120.519L119.217 123.618H117.929L118.937 122.078ZM127.785 126.838H129.227V134.104H127.841V133.362C127.505 133.596 127.169 133.787 126.833 133.936C126.367 134.151 125.881 134.258 125.377 134.258C124.771 134.258 124.29 134.086 123.935 133.74C123.59 133.386 123.417 132.84 123.417 132.102V126.838H124.873V131.794C124.873 132.177 124.967 132.462 125.153 132.648C125.349 132.835 125.62 132.928 125.965 132.928C126.32 132.928 126.679 132.863 127.043 132.732C127.277 132.648 127.524 132.541 127.785 132.41V126.838ZM141.832 125.004V125.942H140.698V134.104H139.298V133.362C138.971 133.614 138.649 133.815 138.332 133.964C137.912 134.16 137.487 134.258 137.058 134.258C136.563 134.258 136.125 134.151 135.742 133.936C135.359 133.712 135.061 133.334 134.846 132.802C134.641 132.261 134.538 131.514 134.538 130.562C134.538 129.638 134.655 128.91 134.888 128.378C135.131 127.837 135.481 127.45 135.938 127.216C136.405 126.983 136.96 126.866 137.604 126.866C138.108 126.866 138.598 126.932 139.074 127.062C139.139 127.09 139.205 127.114 139.27 127.132V125.942H137.268V125.004H139.27V124.052H140.698V125.004H141.832ZM137.52 132.998C137.8 132.998 138.117 132.924 138.472 132.774C138.715 132.672 138.971 132.536 139.242 132.368V128.364C139.046 128.29 138.859 128.229 138.682 128.182C138.365 128.108 138.019 128.07 137.646 128.07C137.263 128.07 136.951 128.15 136.708 128.308C136.475 128.458 136.302 128.714 136.19 129.078C136.078 129.433 136.022 129.928 136.022 130.562C136.013 131.477 136.139 132.112 136.4 132.466C136.661 132.821 137.035 132.998 137.52 132.998ZM146.159 134.258C145.347 134.258 144.68 134.128 144.157 133.866C143.644 133.605 143.261 133.194 143.009 132.634C142.767 132.074 142.645 131.346 142.645 130.45C142.645 129.2 142.911 128.262 143.443 127.636C143.975 127.002 144.759 126.684 145.795 126.684C146.747 126.684 147.461 126.946 147.937 127.468C148.413 127.982 148.651 128.77 148.651 129.834C148.651 129.984 148.642 130.152 148.623 130.338C148.614 130.516 148.595 130.684 148.567 130.842H144.129C144.157 131.309 144.223 131.692 144.325 131.99C144.465 132.373 144.689 132.648 144.997 132.816C145.315 132.975 145.73 133.054 146.243 133.054C146.617 133.054 146.957 133.031 147.265 132.984C147.583 132.928 147.914 132.854 148.259 132.76V134.006C147.961 134.081 147.634 134.142 147.279 134.188C146.934 134.235 146.561 134.258 146.159 134.258ZM144.143 129.82H147.237V129.75C147.237 129.06 147.111 128.57 146.859 128.28C146.617 127.982 146.257 127.832 145.781 127.832C145.184 127.832 144.759 128.038 144.507 128.448C144.311 128.747 144.19 129.204 144.143 129.82ZM146.537 124.08L147.769 125.984H146.523L145.711 124.892L144.885 125.984H143.667L144.913 124.08H146.537ZM146.173 122.078H147.755L146.453 123.618H145.165L146.173 122.078ZM152.026 134.104H150.584V126.838H151.984V127.594C152.33 127.352 152.68 127.156 153.034 127.006C153.52 126.792 154.005 126.684 154.49 126.684C155.134 126.684 155.629 126.862 155.974 127.216C156.329 127.562 156.506 128.108 156.506 128.854V134.104H155.05V129.106C155.05 128.733 154.957 128.458 154.77 128.28C154.584 128.103 154.308 128.014 153.944 128.014C153.59 128.014 153.221 128.08 152.838 128.21C152.586 128.304 152.316 128.42 152.026 128.56V134.104ZM164.124 134.258C163.704 134.258 163.303 134.226 162.92 134.16C162.547 134.095 162.197 134.016 161.87 133.922V132.662C162.29 132.793 162.682 132.896 163.046 132.97C163.42 133.036 163.774 133.068 164.11 133.068C164.558 133.068 164.876 133.003 165.062 132.872C165.258 132.732 165.356 132.522 165.356 132.242C165.356 131.981 165.268 131.776 165.09 131.626C164.922 131.477 164.703 131.356 164.432 131.262C164.162 131.16 163.872 131.062 163.564 130.968C163.266 130.866 162.981 130.74 162.71 130.59C162.44 130.432 162.216 130.217 162.038 129.946C161.87 129.676 161.786 129.321 161.786 128.882C161.786 128.164 162.006 127.618 162.444 127.244C162.883 126.871 163.546 126.684 164.432 126.684C164.796 126.684 165.151 126.712 165.496 126.768C165.851 126.815 166.164 126.876 166.434 126.95V128.196C166.108 128.094 165.767 128.019 165.412 127.972C165.058 127.916 164.736 127.888 164.446 127.888C164.017 127.888 163.7 127.958 163.494 128.098C163.289 128.238 163.186 128.453 163.186 128.742C163.186 129.004 163.27 129.209 163.438 129.358C163.616 129.498 163.84 129.62 164.11 129.722C164.381 129.816 164.666 129.914 164.964 130.016C165.272 130.119 165.562 130.254 165.832 130.422C166.103 130.581 166.322 130.8 166.49 131.08C166.668 131.351 166.756 131.706 166.756 132.144C166.756 132.863 166.542 133.395 166.112 133.74C165.683 134.086 165.02 134.258 164.124 134.258ZM172.916 126.838H173.644C174.167 126.838 174.508 126.736 174.666 126.53C174.834 126.325 174.918 126.017 174.918 125.606V125.256H176.192V125.606C176.192 126.297 176.02 126.848 175.674 127.258C175.366 127.613 174.932 127.814 174.372 127.86V134.104H172.972V133.362C172.636 133.586 172.3 133.778 171.964 133.936C171.488 134.151 170.989 134.258 170.466 134.258C169.878 134.258 169.412 134.086 169.066 133.74C168.721 133.386 168.548 132.84 168.548 132.102V126.838H170.004V131.794C170.004 132.177 170.098 132.466 170.284 132.662C170.48 132.849 170.751 132.942 171.096 132.942C171.451 132.942 171.806 132.872 172.16 132.732C172.394 132.648 172.646 132.541 172.916 132.41V126.838ZM171.95 123.87H173.518L172.09 125.886H170.816L171.95 123.87ZM180.033 134.258C178.922 134.258 178.101 133.95 177.569 133.334C177.037 132.709 176.771 131.748 176.771 130.45C176.771 129.134 177.041 128.178 177.583 127.58C178.133 126.983 178.941 126.684 180.005 126.684C180.341 126.684 180.663 126.717 180.971 126.782C181.279 126.838 181.545 126.908 181.769 126.992V128.252C181.461 128.15 181.167 128.066 180.887 128C180.616 127.935 180.345 127.902 180.075 127.902C179.431 127.902 178.964 128.094 178.675 128.476C178.385 128.85 178.241 129.508 178.241 130.45C178.241 131.085 178.311 131.594 178.451 131.976C178.591 132.35 178.801 132.62 179.081 132.788C179.37 132.947 179.743 133.026 180.201 133.026C180.453 133.026 180.719 133.008 180.999 132.97C181.288 132.933 181.568 132.868 181.839 132.774V134.034C181.549 134.109 181.246 134.165 180.929 134.202C180.621 134.24 180.322 134.258 180.033 134.258ZM188.421 124.052V130.352L191.375 126.838H192.957L190.605 129.68C191.034 130.362 191.45 131.057 191.851 131.766C192.28 132.532 192.696 133.311 193.097 134.104H191.501C191.156 133.395 190.787 132.695 190.395 132.004C190.143 131.547 189.877 131.099 189.597 130.66L188.421 132.074V134.104H186.979V124.052H188.421ZM195.954 134.104H194.512V124.052H195.954V127.566C196.29 127.342 196.626 127.156 196.962 127.006C197.448 126.792 197.933 126.684 198.418 126.684C199.062 126.684 199.557 126.857 199.902 127.202C200.257 127.548 200.434 128.094 200.434 128.84V134.104H198.978V129.092C198.978 128.719 198.885 128.448 198.698 128.28C198.512 128.103 198.236 128.014 197.872 128.014C197.518 128.014 197.149 128.08 196.766 128.21C196.514 128.304 196.244 128.42 195.954 128.56V134.104ZM205.487 126.684C206.523 126.684 207.302 126.997 207.825 127.622C208.347 128.248 208.609 129.204 208.609 130.492C208.609 131.771 208.347 132.718 207.825 133.334C207.302 133.95 206.523 134.258 205.487 134.258C204.451 134.258 203.667 133.95 203.135 133.334C202.612 132.709 202.351 131.748 202.351 130.45C202.351 129.172 202.612 128.224 203.135 127.608C203.667 126.992 204.451 126.684 205.487 126.684ZM205.487 133.04C205.869 133.04 206.182 132.956 206.425 132.788C206.667 132.62 206.845 132.35 206.957 131.976C207.078 131.594 207.139 131.099 207.139 130.492C207.139 129.876 207.078 129.377 206.957 128.994C206.845 128.612 206.667 128.332 206.425 128.154C206.182 127.977 205.869 127.888 205.487 127.888C205.104 127.888 204.791 127.977 204.549 128.154C204.306 128.332 204.129 128.607 204.017 128.98C203.905 129.354 203.849 129.844 203.849 130.45C203.849 131.066 203.905 131.566 204.017 131.948C204.129 132.331 204.306 132.611 204.549 132.788C204.791 132.956 205.104 133.04 205.487 133.04ZM205.865 125.914H204.871V125.704C204.871 125.499 204.917 125.345 205.011 125.242C205.113 125.13 205.23 125.042 205.361 124.976C205.491 124.911 205.603 124.846 205.697 124.78C205.799 124.715 205.851 124.626 205.851 124.514C205.851 124.337 205.678 124.248 205.333 124.248C205.146 124.248 204.955 124.272 204.759 124.318C204.572 124.365 204.381 124.43 204.185 124.514V123.604C204.371 123.539 204.577 123.483 204.801 123.436C205.034 123.38 205.272 123.352 205.515 123.352C205.981 123.352 206.345 123.446 206.607 123.632C206.868 123.819 206.999 124.071 206.999 124.388C206.999 124.631 206.938 124.822 206.817 124.962C206.705 125.102 206.574 125.214 206.425 125.298C206.275 125.382 206.145 125.462 206.033 125.536C205.921 125.602 205.865 125.686 205.865 125.788V125.914ZM213.685 134.258C212.873 134.258 212.205 134.128 211.683 133.866C211.169 133.605 210.787 133.194 210.535 132.634C210.292 132.074 210.171 131.346 210.171 130.45C210.171 129.2 210.437 128.262 210.969 127.636C211.501 127.002 212.285 126.684 213.321 126.684C214.273 126.684 214.987 126.946 215.463 127.468C215.939 127.982 216.177 128.77 216.177 129.834C216.177 129.984 216.167 130.152 216.149 130.338C216.139 130.516 216.121 130.684 216.093 130.842H211.655C211.683 131.309 211.748 131.692 211.851 131.99C211.991 132.373 212.215 132.648 212.523 132.816C212.84 132.975 213.255 133.054 213.769 133.054C214.142 133.054 214.483 133.031 214.791 132.984C215.108 132.928 215.439 132.854 215.785 132.76V134.006C215.486 134.081 215.159 134.142 214.805 134.188C214.459 134.235 214.086 134.258 213.685 134.258ZM211.669 129.82H214.763V129.75C214.763 129.06 214.637 128.57 214.385 128.28C214.142 127.982 213.783 127.832 213.307 127.832C212.709 127.832 212.285 128.038 212.033 128.448C211.837 128.747 211.715 129.204 211.669 129.82Z" fill="white"/>
<rect x="135.048" y="12.082" width="133.538" height="78.0221" fill="#2A2A2A"/>
<path d="M159.964 29.31V27.326H163.884V33.31C163.458 33.4487 162.951 33.5607 162.364 33.646C161.788 33.7314 161.202 33.774 160.604 33.774C159.794 33.774 159.058 33.6834 158.396 33.502C157.735 33.31 157.164 32.9954 156.684 32.558C156.215 32.11 155.852 31.518 155.596 30.782C155.34 30.0354 155.212 29.1074 155.212 27.998C155.212 26.558 155.42 25.4167 155.836 24.574C156.252 23.7314 156.85 23.1287 157.628 22.766C158.418 22.4034 159.356 22.222 160.444 22.222C161.02 22.222 161.564 22.2594 162.076 22.334C162.588 22.4087 163.01 22.4994 163.34 22.606V24.718C162.946 24.6007 162.519 24.51 162.06 24.446C161.612 24.3714 161.143 24.334 160.652 24.334C159.938 24.334 159.362 24.4354 158.924 24.638C158.487 24.83 158.167 25.1874 157.964 25.71C157.772 26.222 157.676 26.9687 157.676 27.95C157.676 28.8887 157.778 29.63 157.98 30.174C158.183 30.7074 158.514 31.0914 158.972 31.326C159.442 31.55 160.066 31.662 160.844 31.662C161.122 31.662 161.415 31.646 161.724 31.614V29.31H159.964ZM171.662 22.414C172.003 23.342 172.329 24.2754 172.638 25.214C172.958 26.1527 173.262 27.0914 173.55 28.03C173.838 28.958 174.105 29.886 174.35 30.814C174.606 31.742 174.835 32.6647 175.038 33.582H172.574C172.425 32.8247 172.265 32.062 172.094 31.294H168.206C168.035 32.062 167.875 32.8247 167.726 33.582H165.358C165.561 32.6647 165.785 31.742 166.03 30.814C166.286 29.886 166.558 28.958 166.846 28.03C167.134 27.0914 167.438 26.1527 167.758 25.214C168.078 24.2754 168.409 23.342 168.75 22.414H171.662ZM171.598 29.31C171.502 28.9474 171.406 28.5794 171.31 28.206C171.065 27.2994 170.803 26.3927 170.526 25.486C170.398 25.0914 170.27 24.6914 170.142 24.286C170.025 24.6914 169.902 25.0914 169.774 25.486C169.497 26.3927 169.235 27.2994 168.99 28.206C168.894 28.5794 168.798 28.9474 168.702 29.31H171.598ZM179.154 33.582H176.914V22.414H179.602L182.402 27.982L185.186 22.414H187.938V33.582H185.698V25.502L183.426 30.158H181.426L179.154 25.518V33.582ZM197.779 22.414V24.398H193.267V26.846H197.299V28.894H193.267V31.598H197.779V33.582H190.851V22.414H197.779ZM206.243 33.582H204.195V22.414H208.259C208.899 22.414 209.501 22.4994 210.067 22.67C210.643 22.83 211.144 23.118 211.571 23.534C212.008 23.9394 212.349 24.5047 212.595 25.23C212.851 25.9554 212.979 26.878 212.979 27.998C212.979 29.118 212.851 30.046 212.595 30.782C212.349 31.5074 212.008 32.0727 211.571 32.478C211.133 32.8834 210.632 33.1714 210.067 33.342C209.501 33.502 208.899 33.582 208.259 33.582H206.243ZM208.275 31.598C208.755 31.598 209.16 31.5074 209.491 31.326C209.832 31.134 210.088 30.7767 210.259 30.254C210.44 29.7314 210.531 28.9794 210.531 27.998C210.531 27.0167 210.44 26.27 210.259 25.758C210.077 25.2354 209.816 24.878 209.475 24.686C209.144 24.494 208.744 24.398 208.275 24.398H206.611V31.598H208.275ZM220.412 22.414C220.753 23.342 221.079 24.2754 221.388 25.214C221.708 26.1527 222.012 27.0914 222.3 28.03C222.588 28.958 222.855 29.886 223.1 30.814C223.356 31.742 223.585 32.6647 223.788 33.582H221.324C221.175 32.8247 221.015 32.062 220.844 31.294H216.956C216.785 32.062 216.625 32.8247 216.476 33.582H214.108C214.311 32.6647 214.535 31.742 214.78 30.814C215.036 29.886 215.308 28.958 215.596 28.03C215.884 27.0914 216.188 26.1527 216.508 25.214C216.828 24.2754 217.159 23.342 217.5 22.414H220.412ZM220.348 29.31C220.252 28.9474 220.156 28.5794 220.06 28.206C219.815 27.2994 219.553 26.3927 219.276 25.486C219.148 25.0914 219.02 24.6914 218.892 24.286C218.775 24.6914 218.652 25.0914 218.524 25.486C218.247 26.3927 217.985 27.2994 217.74 28.206C217.644 28.5794 217.548 28.9474 217.452 29.31H220.348ZM218.652 19.102L219.852 21.566H217.836L216.236 19.102H218.652ZM227.808 33.582H225.664V22.414H228.48L232.336 30.494V22.414H234.48V33.582H231.632L227.808 25.598V33.582ZM239.814 33.582H237.398V22.414H239.814V26.894H243.91V22.414H246.326V33.582H243.91V29.006H239.814V33.582ZM163.472 57.774C162.32 57.774 161.366 57.582 160.608 57.198C159.851 56.8034 159.286 56.1794 158.912 55.326C158.55 54.4727 158.368 53.3527 158.368 51.966C158.368 50.5367 158.56 49.406 158.944 48.574C159.328 47.7314 159.888 47.1287 160.624 46.766C161.371 46.4034 162.272 46.222 163.328 46.222C163.787 46.222 164.23 46.254 164.656 46.318C165.083 46.3714 165.451 46.4514 165.76 46.558V48.67C165.398 48.5527 165.035 48.4674 164.672 48.414C164.31 48.35 163.931 48.318 163.536 48.318C162.907 48.318 162.39 48.414 161.984 48.606C161.59 48.798 161.296 49.1607 161.104 49.694C160.923 50.2167 160.832 50.974 160.832 51.966C160.832 52.894 160.923 53.63 161.104 54.174C161.296 54.7074 161.595 55.0914 162 55.326C162.406 55.5607 162.928 55.678 163.568 55.678C163.942 55.678 164.315 55.6514 164.688 55.598C165.072 55.534 165.43 55.4487 165.76 55.342V57.47C165.494 57.5554 165.168 57.6247 164.784 57.678C164.4 57.742 163.963 57.774 163.472 57.774ZM170.283 57.582H167.867V46.414H170.283V50.894H174.379V46.414H176.795V57.582H174.379V53.006H170.283V57.582ZM183.918 57.774C183.236 57.774 182.601 57.6834 182.014 57.502C181.428 57.3207 180.916 57.0167 180.478 56.59C180.052 56.1527 179.716 55.566 179.47 54.83C179.225 54.0834 179.102 53.1447 179.102 52.014C179.102 50.8834 179.225 49.9447 179.47 49.198C179.716 48.4514 180.052 47.8594 180.478 47.422C180.916 46.9847 181.428 46.6754 182.014 46.494C182.601 46.3127 183.236 46.222 183.918 46.222C184.601 46.222 185.236 46.3127 185.822 46.494C186.409 46.6754 186.916 46.9847 187.342 47.422C187.78 47.8487 188.121 48.4354 188.366 49.182C188.612 49.918 188.734 50.8514 188.734 51.982C188.734 53.1127 188.612 54.0514 188.366 54.798C188.121 55.5447 187.78 56.1367 187.342 56.574C186.916 57.0114 186.409 57.3207 185.822 57.502C185.236 57.6834 184.601 57.774 183.918 57.774ZM183.918 55.678C184.452 55.678 184.889 55.5714 185.23 55.358C185.582 55.134 185.838 54.7554 185.998 54.222C186.169 53.678 186.254 52.9314 186.254 51.982C186.254 51.022 186.169 50.2807 185.998 49.758C185.838 49.2247 185.582 48.8514 185.23 48.638C184.889 48.4247 184.452 48.318 183.918 48.318C183.385 48.318 182.942 48.43 182.59 48.654C182.249 48.8674 181.993 49.2407 181.822 49.774C181.662 50.3074 181.582 51.054 181.582 52.014C181.582 52.9634 181.662 53.7047 181.822 54.238C181.993 54.7714 182.249 55.1447 182.59 55.358C182.942 55.5714 183.385 55.678 183.918 55.678ZM197.183 57.582H195.039V46.414H197.855L201.711 54.494V46.414H203.855V57.582H201.007L197.183 49.598V57.582ZM210.933 53.31V51.326H214.853V57.31C214.426 57.4487 213.92 57.5607 213.333 57.646C212.757 57.7314 212.17 57.774 211.573 57.774C210.762 57.774 210.026 57.6834 209.365 57.502C208.704 57.31 208.133 56.9954 207.653 56.558C207.184 56.11 206.821 55.518 206.565 54.782C206.309 54.0354 206.181 53.1074 206.181 51.998C206.181 50.558 206.389 49.4167 206.805 48.574C207.221 47.7314 207.818 47.1287 208.597 46.766C209.386 46.4034 210.325 46.222 211.413 46.222C211.989 46.222 212.533 46.2594 213.045 46.334C213.557 46.4087 213.978 46.4994 214.309 46.606V48.718C213.914 48.6007 213.488 48.51 213.029 48.446C212.581 48.3714 212.112 48.334 211.621 48.334C210.906 48.334 210.33 48.4354 209.893 48.638C209.456 48.83 209.136 49.1874 208.933 49.71C208.741 50.222 208.645 50.9687 208.645 51.95C208.645 52.8887 208.746 53.63 208.949 54.174C209.152 54.7074 209.482 55.0914 209.941 55.326C210.41 55.55 211.034 55.662 211.813 55.662C212.09 55.662 212.384 55.646 212.693 55.614V53.31H210.933ZM225.319 46.414C225.852 46.414 226.204 46.3127 226.375 46.11C226.545 45.8967 226.631 45.5767 226.631 45.15V44.622H228.631V45.15C228.631 45.9927 228.412 46.6754 227.975 47.198C227.548 47.7207 226.892 47.982 226.007 47.982H225.911V53.694C225.911 54.6327 225.724 55.406 225.351 56.014C224.988 56.6114 224.481 57.054 223.831 57.342C223.191 57.63 222.444 57.774 221.591 57.774C220.737 57.774 219.98 57.63 219.319 57.342C218.668 57.054 218.161 56.6114 217.799 56.014C217.436 55.406 217.255 54.6327 217.255 53.694V46.414H219.655V53.486C219.655 54.062 219.735 54.51 219.895 54.83C220.055 55.15 220.279 55.374 220.567 55.502C220.855 55.6194 221.191 55.678 221.575 55.678C221.969 55.678 222.311 55.6194 222.599 55.502C222.887 55.374 223.111 55.15 223.271 54.83C223.431 54.51 223.511 54.062 223.511 53.486V46.414H225.319ZM233.35 43.102L234.55 45.566H232.534L230.934 43.102H233.35ZM235.99 46.414C236.524 46.414 236.876 46.3127 237.046 46.11C237.217 45.8967 237.302 45.5767 237.302 45.15V44.622H239.302V45.15C239.302 45.9927 239.089 46.6754 238.662 47.198C238.353 47.5607 237.942 47.7954 237.43 47.902C237.676 48.2647 237.878 48.686 238.038 49.166C238.284 49.9127 238.406 50.8514 238.406 51.982C238.406 53.1127 238.284 54.0514 238.038 54.798C237.793 55.5447 237.452 56.1367 237.014 56.574C236.588 57.0114 236.081 57.3207 235.494 57.502C234.908 57.6834 234.273 57.774 233.59 57.774C232.908 57.774 232.273 57.6834 231.686 57.502C231.1 57.3207 230.588 57.0167 230.15 56.59C229.724 56.1527 229.388 55.566 229.142 54.83C228.897 54.0834 228.774 53.1447 228.774 52.014C228.774 50.8834 228.897 49.9447 229.142 49.198C229.388 48.4514 229.724 47.8594 230.15 47.422C230.588 46.9847 231.1 46.6754 231.686 46.494C232.273 46.3127 232.908 46.222 233.59 46.222C234.166 46.222 234.705 46.286 235.206 46.414H235.99ZM233.59 55.678C234.124 55.678 234.561 55.5714 234.902 55.358C235.254 55.134 235.51 54.7554 235.67 54.222C235.841 53.678 235.926 52.9314 235.926 51.982C235.926 51.022 235.841 50.2807 235.67 49.758C235.51 49.2247 235.254 48.8514 234.902 48.638C234.561 48.4247 234.124 48.318 233.59 48.318C233.057 48.318 232.614 48.43 232.262 48.654C231.921 48.8674 231.665 49.2407 231.494 49.774C231.334 50.3074 231.254 51.054 231.254 52.014C231.254 52.9634 231.334 53.7047 231.494 54.238C231.665 54.7714 231.921 55.1447 232.262 55.358C232.614 55.5714 233.057 55.678 233.59 55.678ZM243.173 57.582H240.757V46.414H243.173V57.582ZM154.807 81.582H152.391V72.398H149.207V70.414H157.975V72.398H154.807V81.582ZM162.15 81.582H159.734V70.414H163.99C164.694 70.414 165.334 70.5367 165.91 70.782C166.497 71.0274 166.961 71.406 167.302 71.918C167.654 72.43 167.83 73.086 167.83 73.886C167.83 74.654 167.654 75.294 167.302 75.806C166.95 76.318 166.486 76.702 165.91 76.958C165.878 76.9687 165.851 76.9794 165.83 76.99C166.257 77.6194 166.657 78.27 167.03 78.942C167.51 79.7954 167.979 80.6754 168.438 81.582H165.718C165.323 80.7607 164.897 79.918 164.438 79.054C164.161 78.542 163.867 78.03 163.558 77.518H162.15V81.582ZM162.15 72.398V75.534H163.814C164.102 75.534 164.369 75.4807 164.614 75.374C164.859 75.2674 165.057 75.0967 165.206 74.862C165.355 74.6274 165.43 74.318 165.43 73.934C165.43 73.4114 165.27 73.0274 164.95 72.782C164.641 72.526 164.257 72.398 163.798 72.398H162.15ZM177.334 70.414V72.398H172.822V74.846H176.854V76.894H172.822V79.598H177.334V81.582H170.406V70.414H177.334ZM175.094 67.102L176.742 69.566H174.742L173.878 68.334L173.03 69.566H171.046L172.71 67.102H175.094ZM181.893 81.582H179.749V70.414H182.565L186.421 78.494V70.414H188.565V81.582H185.717L181.893 73.598V81.582ZM200.14 81.582H197.756V72.974L195.244 73.966V71.886L198.156 70.414H200.14V81.582ZM207.461 70.222C208.666 70.222 209.573 70.4887 210.181 71.022C210.8 71.5447 211.109 72.3127 211.109 73.326C211.109 74.2967 210.8 75.0274 210.181 75.518C210.074 75.6034 209.962 75.6834 209.845 75.758C210.037 75.8434 210.213 75.9447 210.373 76.062C211.034 76.5634 211.365 77.31 211.365 78.302C211.365 79.4754 211.034 80.35 210.373 80.926C209.722 81.4914 208.752 81.774 207.461 81.774C206.17 81.774 205.194 81.4914 204.533 80.926C203.882 80.35 203.557 79.4754 203.557 78.302C203.557 77.31 203.893 76.5634 204.565 76.062C204.725 75.9447 204.896 75.8434 205.077 75.758C204.96 75.6834 204.848 75.6034 204.741 75.518C204.122 75.0274 203.813 74.2967 203.813 73.326C203.813 72.3127 204.117 71.5447 204.725 71.022C205.344 70.4887 206.256 70.222 207.461 70.222ZM207.461 76.67C206.96 76.67 206.586 76.8034 206.341 77.07C206.096 77.326 205.973 77.7207 205.973 78.254C205.973 78.8087 206.09 79.2247 206.325 79.502C206.57 79.7687 206.949 79.902 207.461 79.902C207.973 79.902 208.346 79.7687 208.581 79.502C208.826 79.2247 208.949 78.8087 208.949 78.254C208.949 77.7207 208.826 77.326 208.581 77.07C208.336 76.8034 207.962 76.67 207.461 76.67ZM207.461 72.11C207.002 72.11 206.661 72.222 206.437 72.446C206.224 72.6594 206.117 72.9847 206.117 73.422C206.117 73.9234 206.224 74.2967 206.437 74.542C206.661 74.7767 207.002 74.894 207.461 74.894C207.92 74.894 208.256 74.7767 208.469 74.542C208.693 74.2967 208.805 73.9234 208.805 73.422C208.805 72.9847 208.698 72.6594 208.485 72.446C208.272 72.222 207.93 72.11 207.461 72.11ZM221.838 81.582H219.422V72.398H216.238V70.414H225.006V72.398H221.838V81.582ZM230.911 81.774C230.058 81.774 229.3 81.63 228.639 81.342C227.988 81.054 227.482 80.6114 227.119 80.014C226.756 79.406 226.575 78.6327 226.575 77.694V70.414H228.975V77.486C228.975 78.062 229.055 78.51 229.215 78.83C229.375 79.15 229.599 79.374 229.887 79.502C230.175 79.6194 230.511 79.678 230.895 79.678C231.279 79.678 231.615 79.6194 231.903 79.502C232.202 79.374 232.431 79.15 232.591 78.83C232.751 78.51 232.831 78.062 232.831 77.486V70.414H235.231V77.694C235.231 78.6327 235.044 79.406 234.671 80.014C234.308 80.6114 233.802 81.054 233.151 81.342C232.511 81.63 231.764 81.774 230.911 81.774ZM242.239 81.774C241.556 81.774 240.921 81.6834 240.335 81.502C239.748 81.3207 239.236 81.0167 238.799 80.59C238.372 80.1527 238.036 79.566 237.791 78.83C237.545 78.0834 237.423 77.1447 237.423 76.014C237.423 74.8834 237.545 73.9447 237.791 73.198C238.036 72.4514 238.372 71.8594 238.799 71.422C239.236 70.9847 239.748 70.6754 240.335 70.494C240.921 70.3127 241.556 70.222 242.239 70.222C242.921 70.222 243.556 70.3127 244.143 70.494C244.729 70.6754 245.236 70.9847 245.663 71.422C246.1 71.8487 246.441 72.4354 246.687 73.182C246.932 73.918 247.055 74.8514 247.055 75.982C247.055 77.1127 246.932 78.0514 246.687 78.798C246.441 79.5447 246.1 80.1367 245.663 80.574C245.236 81.0114 244.729 81.3207 244.143 81.502C243.556 81.6834 242.921 81.774 242.239 81.774ZM242.239 79.678C242.772 79.678 243.209 79.5714 243.551 79.358C243.903 79.134 244.159 78.7554 244.319 78.222C244.489 77.678 244.575 76.9314 244.575 75.982C244.575 75.022 244.489 74.2807 244.319 73.758C244.159 73.2247 243.903 72.8514 243.551 72.638C243.209 72.4247 242.772 72.318 242.239 72.318C241.705 72.318 241.263 72.43 240.911 72.654C240.569 72.8674 240.313 73.2407 240.143 73.774C239.983 74.3074 239.903 75.054 239.903 76.014C239.903 76.9634 239.983 77.7047 240.143 78.238C240.313 78.7714 240.569 79.1447 240.911 79.358C241.263 79.5714 241.705 79.678 242.239 79.678ZM243.535 67.726L245.055 69.886H243.039L242.191 68.798L241.327 69.886H239.343L240.863 67.726H243.535ZM245.791 67.966H244.223V67.662C244.223 67.4594 244.276 67.2994 244.383 67.182C244.5 67.054 244.633 66.9527 244.783 66.878C244.943 66.7927 245.076 66.7127 245.183 66.638C245.3 66.5634 245.359 66.478 245.359 66.382C245.359 66.2327 245.193 66.158 244.863 66.158C244.628 66.158 244.399 66.1794 244.175 66.222C243.951 66.2647 243.727 66.3287 243.503 66.414V65.102C243.727 65.038 243.977 64.9847 244.255 64.942C244.532 64.8887 244.815 64.862 245.103 64.862C245.732 64.862 246.223 64.9794 246.575 65.214C246.927 65.438 247.103 65.774 247.103 66.222C247.103 66.51 247.033 66.7394 246.895 66.91C246.767 67.07 246.617 67.198 246.447 67.294C246.276 67.39 246.121 67.4754 245.983 67.55C245.855 67.6247 245.791 67.7207 245.791 67.838V67.966ZM251.775 81.582H249.359V70.414H251.775V81.582Z" fill="white"/>
</svg>
